# AST/ASF file generated using VICON BodyLanguage
# -----------------------------------------------
:version 1.10
:name VICON
:units
  mass 1.0
  length 0.45
  angle deg
:documentation
   .ast/.asf automatically generated from VICON data using
   VICON BodyBuilder and BodyLanguage model FoxedUp or BRILLIANT.MOD
:root
   order TX TY TZ RX RY RZ
   axis XYZ
   position 0 0 0  
   orientation 0 0 0 
:bonedata
  begin
     id 1 
     name lhipjoint
     direction 0.588788 -0.725889 0.355548 
     length 2.37778 
     axis 0 0 0  XYZ
  end
  begin
     id 2 
     name lfemur
     direction 0.34202 -0.939693 0  
     length 6.86393  
     axis 0 0 20  XYZ
    dof rx ry rz
    limits (-160.0 20.0)
           (-70.0 70.0)
           (-60.0 70.0)
  end
  begin
     id 3 
     name ltibia
     direction 0.34202 -0.939693 0   
     length 7.32851   
     axis 0 0 20   XYZ
    dof rx
    limits (-10.0 170.0)
  end
  begin
     id 4 
     name lfoot
     direction 0.0626533 -0.172138 0.983078   
     length 1.98929   
     axis -90 7.62852e-016 20   XYZ
    dof rx rz
    limits (-45.0 90.0)
           (-70.0 20.0)
  end
  begin
     id 5 
     name ltoes
     direction 1.53647e-011 -4.21734e-011 1   
     length 1.00479   
     axis -90 7.62852e-016 20   XYZ
    dof rx
    limits (-90.0 20.0)
  end
  begin
     id 6 
     name rhipjoint
     direction -0.59141 -0.724168 0.354705   
     length 2.38343  
     axis 0 0 0  XYZ 
  end
  begin
     id 7 
     name rfemur
     direction -0.34202 -0.939693 0   
     length 6.95589   
     axis 0 0 -20   XYZ
    dof rx ry rz
    limits (-160.0 20.0)
           (-70.0 70.0)
           (-70.0 60.0)
  end
  begin
     id 8 
     name rtibia
     direction -0.34202 -0.939693 0   
     length 7.32327   
     axis 0 0 -20   XYZ
    dof rx
    limits (-10.0 170.0)
 end
 begin
     id 9 
     name rfoot
     direction -0.0660461 -0.18146 0.981178   
     length 1.85272  
     axis -90 -7.62852e-016 -20   XYZ
    dof rx rz
    limits (-45.0 90.0)
           (-20.0 70.0)
  end
  begin
     id 10 
     name rtoes
     direction -1.53586e-011 -4.21988e-011 1   
     length 0.93746   
     axis -90 -7.62852e-016 -20   XYZ
    dof rx
    limits (-90.0 20.0)
  end
  begin
     id 11 
     name lowerback
     direction -0.0107982 0.991059 0.13299   
     length 1.98691   
     axis 0 0 0   XYZ
    dof rx ry rz
    limits (-20.0 45.0)
           (-30.0 30.0)
           (-30.0 30.0)
  end
  begin
     id 12 
     name upperback
     direction 0.0076296 0.999916 0.0104576   
     length 1.99501   
     axis 0 0 0   XYZ
    dof rx ry rz
    limits (-20.0 45.0)
           (-30.0 30.0)
           (-30.0 30.0)
  end
  begin
     id 13 
     name thorax
     direction 0.01176 0.998615 -0.0512909   
     length 2.03144   
     axis 0 0 0   XYZ
    dof rx ry rz
    limits (-20.0 45.0)
           (-30.0 30.0)
           (-30.0 30.0)
  end
  begin
     id 14 
     name lowerneck
     direction -0.0171909 0.999644 0.0204011   
     length 1.71818   
     axis 0 0 0   XYZ
    dof rx ry rz
    limits (-20.0 45.0)
           (-30.0 30.0)
           (-30.0 30.0)
  end
  begin
     id 15 
     name upperneck
     direction 0.0250902 0.997482 -0.0663316   
     length 1.66199   
     axis 0 0 0   XYZ
    dof rx ry rz
    limits (-20.0 45.0)
           (-30.0 30.0)
           (-30.0 30.0)
  end
  begin
     id 16
     name head
     direction 0.00881535 0.99956 -0.0283365  
     length 1.81545  
     axis 0 0 0   XYZ
    dof rx ry rz
    limits (-20.0 45.0)
           (-30.0 30.0)
           (-30.0 30.0)
  end
  begin
     id 17 
     name lclavicle
     direction 0.840411 0.486876 -0.238035  
     length 3.30409  
     axis 0 0 0   XYZ
    dof ry rz
    limits (-20.0 10.0)
           (0.0 20.0)
  end
  begin
     id 18 
     name lhumerus
     direction 1 -4.48977e-011 -5.16239e-027   
     length 4.62672   
     axis 180 -30 -90   XYZ
    dof rx ry rz
    limits (-60.0 90.0)
           (-90.0 90.0)
           (-90.0 90.0)
  end
  begin
     id 19
     name lradius
     direction 1 -4.48977e-011 -8.71171e-027   
     length 3.11018   
     axis 180 -30 -90   XYZ
    dof rx
    limits (-10.0 170.0)
  end
  begin
     id 20
     name lwrist
     direction 1 -4.48912e-011 -1.03764e-026   
     length 1.55509   
     axis 9.09556e-015 90 90   XYZ
    dof ry
    limits (-180.0 0.0)
 end
  begin
     id 21 
     name lhand
     direction 1 -4.49072e-011 -2.07528e-026   
     length 0.743834   
     axis 1.3242e-014 90 90   XYZ
    dof rx rz
    limits (-90.0 90.0)
           (-45.0 45.0)
  end
  begin
     id 22 
     name lfingers
     direction 1 -4.48909e-011 -4.15056e-026   
     length 0.599698   
     axis 2.64841e-014 90 90   XYZ
    dof rx
    limits (0.0 90.0)
  end
  begin
     id 23
     name lthumb
     direction 0.707107 -6.35013e-011 0.707107   
     length 0.86105   
     axis -90 45 2.85299e-015   XYZ
    dof rx rz
    limits (-45.0 45.0)
           (-45.0 45.0)
  end
  begin
     id 24 
     name rclavicle
     direction -0.835208 0.500237 -0.228452   
     length 3.2716  
     axis 0 0 0   XYZ 
    dof ry rz
    limits (-10.0 20.0)
           (-20.0 0.0)
  end
  begin
     id 25 
     name rhumerus
     direction -1 -4.48978e-011 -5.1953e-028  
     length 4.55919   
     axis 180 30 90   XYZ
    dof rx ry rz
    limits (-90.0 60.0)
           (-90.0 90.0)
           (-90.0 90.0)
  end
  begin
     id 26 
     name rradius
     direction -1 -4.48961e-011 -5.99546e-027   
     length 3.22748   
     axis 180 30 90   XYZ
    dof rx
    limits (-10.0 170.0)
  end
  begin
     id 27 
     name rwrist
     direction -1 -4.48986e-011 -1.03764e-026   
     length 1.61374   
     axis 9.09556e-015 -90 -90   XYZ
    dof ry
    limits (-180.0 0.0)
  end
  begin
     id 28
     name rhand
     direction -1 -4.4899e-011 -2.07528e-026   
     length 0.700882   
     axis 1.3242e-014 -90 -90   XYZ
    dof rx rz
    limits (-90.0 90.0)
           (-45.0 45.0)
  end
  begin
     id 29
     name rfingers
     direction -1 -4.48991e-011 -4.15056e-026   
     length 0.565069   
     axis 2.64841e-014 -90 -90   XYZ
    dof rx
    limits (0.0 90.0)
  end
  begin
     id 30
     name rthumb
     direction -0.707107 -6.34804e-011 0.707107   
     length 0.811329   
     axis -90 -45 -2.85299e-015   XYZ
    dof rx rz
    limits (-45.0 45.0)
           (-45.0 45.0)
  end
:hierarchy
  begin
    root lhipjoint rhipjoint lowerback
    lhipjoint lfemur
    lfemur ltibia
    ltibia lfoot
    lfoot ltoes
    rhipjoint rfemur
    rfemur rtibia
    rtibia rfoot
    rfoot rtoes
    lowerback upperback
    upperback thorax
    thorax lowerneck lclavicle rclavicle
    lowerneck upperneck
    upperneck head
    lclavicle lhumerus
    lhumerus lradius
    lradius lwrist
    lwrist lhand lthumb
    lhand lfingers
    rclavicle rhumerus
    rhumerus rradius
    rradius rwrist
    rwrist rhand rthumb
    rhand rfingers
  end

#!OML:ASF F:\VICON\USERDATA\INSTALL\SteveWalk\SteveWalk.ASF
:FULLY-SPECIFIED
:DEGREES
337
root 0.361459 15.8224 33.9574 16.7103 6.99979 -0.639707
lowerback -15.2951 -2.04146 3.51689
upperback -5.29589 -3.30085 2.59468
thorax 2.90429 -1.63639 0.163544
lowerneck -4.07742 0.953837 0.301767
upperneck 4.10491 1.45657 -4.09356
head 2.02634 0.627351 -1.30443
rclavicle 3.40481e-014 -1.03368e-014
rhumerus -97.5757 -39.4284 11.0174
rradius 11.207
rwrist 62.4053
rhand -13.2226 -30.0989
rfingers 7.12502
rthumb 12.8786 -59.6816
lclavicle 3.40481e-014 -1.03368e-014
lhumerus -26.9107 -6.33453 84.2434
lradius 60.3976
lwrist 14.9759
lhand -22.6429 -19.7766
lfingers 7.12502
lthumb 3.78794 10.1695
rfemur -47.1772 -1.15667 24.6042
rtibia 39.2277
rfoot -9.57545 5.01964
rtoes -5.22732
lfemur -10.7012 -0.359118 -17.3715
ltibia 54.324
lfoot 24.6291 -13.7808
ltoes -7.6412
338
root 0.354843 15.8364 34.1698 16.4993 7.17323 -0.804365
lowerback -15.2055 -1.96238 3.55802
upperback -5.14968 -3.20647 2.65119
thorax 3.01342 -1.58633 0.215587
lowerneck -4.01758 0.911475 0.313467
upperneck 3.89768 1.38299 -3.91918
head 1.94369 0.598609 -1.25149
rclavicle 3.93997e-014 -7.95139e-016
rhumerus -100.28 -39.9716 14.9978
rradius 11.1901
rwrist 64.6703
rhand -12.1882 -25.0658
rfingers 7.12502
rthumb 13.8756 -54.5829
lclavicle 3.93997e-014 -7.95139e-016
lhumerus -27.2151 -6.05274 84.5912
lradius 59.4111
lwrist 14.7333
lhand -22.7979 -19.5272
lfingers 7.12502
lthumb 3.63822 10.4215
rfemur -46.2924 -1.2812 24.9719
rtibia 39.7147
rfoot -10.6931 4.58361
rtoes -8.5429
lfemur -12.3338 -0.290898 -17.0302
ltibia 57.3209
lfoot 26.3743 -11.8446
ltoes -12.9196
339
root 0.351873 15.8468 34.3737 16.4411 7.10521 -0.735562
lowerback -15.043 -1.8667 3.39101
upperback -5.16234 -3.04607 2.62499
thorax 2.92394 -1.50782 0.315267
lowerneck -3.9103 0.837622 0.31925
upperneck 3.84352 1.2736 -3.75704
head 1.90204 0.549891 -1.20341
rclavicle 1.95865e-014 1.35174e-014
rhumerus -97.4191 -41.1166 10.063
rradius 11.3697
rwrist 61.2464
rhand -12.3359 -24.5345
rfingers 7.12502
rthumb 13.7333 -54.0613
lclavicle 1.95865e-014 1.35174e-014
lhumerus -27.6255 -5.57853 84.8761
lradius 58.1763
lwrist 14.3217
lhand -22.628 -19.5003
lfingers 7.12502
lthumb 3.80232 10.4455
rfemur -45.5372 -1.30415 25.0264
rtibia 40.0266
rfoot -11.6844 4.42548
rtoes -9.17305
lfemur -14.0881 0.0228331 -17.0755
ltibia 60.2109
lfoot 26.1312 -12.0106
ltoes -17.8928
340
root 0.343222 15.8656 34.579 16.4946 7.16584 -0.954023
lowerback -15.0722 -1.71741 3.40535
upperback -5.16532 -2.85602 2.72352
thorax 2.94387 -1.41234 0.441646
lowerneck -4.02661 0.726007 0.24302
upperneck 3.95229 1.12605 -3.60265
head 1.95235 0.476466 -1.14578
rclavicle -1.73906e-014 0
rhumerus -97.1324 -42.1193 9.35546
rradius 11.2868
rwrist 60.9308
rhand -13.471 -27.4322
rfingers 7.12502
rthumb 12.6392 -57.0298
lclavicle -1.73906e-014 0
lhumerus -27.7893 -5.09761 85.2579
lradius 56.608
lwrist 13.6403
lhand -22.3535 -19.6809
lfingers 7.12502
lthumb 4.06737 10.26
rfemur -44.7714 -1.18983 25.367
rtibia 40.0717
rfoot -12.5817 4.23105
rtoes -8.4961
lfemur -16.0671 0.438645 -16.7294
ltibia 62.8674
lfoot 24.7537 -12.8471
ltoes -18.5817
341
root 0.33338 15.8903 34.7897 16.4328 7.52883 -1.26933
lowerback -15.0463 -1.59201 3.51172
upperback -5.12543 -2.71108 2.86912
thorax 2.976 -1.33864 0.559221
lowerneck -4.56139 0.582023 0.0907899
upperneck 4.46276 0.953474 -3.39825
head 2.20936 0.382257 -1.06298
rclavicle 2.35187e-014 -7.95139e-016
rhumerus -95.6387 -43.2485 6.85291
rradius 11.4769
rwrist 58.8923
rhand -14.5799 -35.3519
rfingers 7.12502
rthumb 11.57 -65.0126
lclavicle 2.35187e-014 -7.95139e-016
lhumerus -27.8564 -4.88541 85.7617
lradius 54.9505
lwrist 12.9477
lhand -22.2967 -19.5356
lfingers 7.12502
lthumb 4.12228 10.4042
rfemur -43.7693 -1.28859 25.8632
rtibia 39.9894
rfoot -13.3823 3.79322
rtoes -9.67117
lfemur -18.0176 0.520675 -16.1917
ltibia 65.3217
lfoot 23.3107 -12.2114
ltoes -17.1173
342
root 0.339701 15.936 35.0295 16.1136 7.50131 -1.55199
lowerback -15.0759 -1.35205 3.7457
upperback -5.01014 -2.43755 2.93007
thorax 3.10914 -1.20022 0.535786
lowerneck -4.75475 0.449912 -0.0449535
upperneck 4.8447 0.792188 -3.26545
head 2.36562 0.29712 -1.00497
rclavicle -1.45361e-015 4.77083e-015
rhumerus -94.1589 -44.2385 4.51505
rradius 11.6878
rwrist 57.4841
rhand -14.0363 -35.6137
rfingers 7.12502
rthumb 12.0941 -65.2441
lclavicle -1.45361e-015 4.77083e-015
lhumerus -28.1267 -4.54417 86.2164
lradius 53.2751
lwrist 12.141
lhand -22.1135 -19.1724
lfingers 7.12502
lthumb 4.29921 10.7639
rfemur -42.2741 -1.45786 26.2969
rtibia 39.7338
rfoot -14.211 3.69275
rtoes -11.9255
lfemur -19.2622 0.79538 -15.9185
ltibia 67.3114
lfoot 21.4546 -10.8906
ltoes -14.4839
343
root 0.341036 15.966 35.2362 16.3594 7.90919 -1.66951
lowerback -15.2061 -1.30127 3.85448
upperback -5.2981 -2.37929 2.97698
thorax 2.87287 -1.17615 0.535488
lowerneck -4.22054 0.315795 -0.0253282
upperneck 4.91018 0.610145 -3.30808
head 2.28635 0.209634 -1.02722
rclavicle -1.61761e-014 1.74931e-014
rhumerus -94.0726 -45.0446 4.46284
rradius 11.5562
rwrist 58.1222
rhand -13.9376 -35.4405
rfingers 7.12502
rthumb 12.1893 -65.0654
lclavicle -1.61761e-014 1.74931e-014
lhumerus -28.5355 -4.01241 86.5866
lradius 51.1202
lwrist 11.1476
lhand -21.8913 -19.2135
lfingers 7.12502
lthumb 4.51376 10.7184
rfemur -41.6025 -1.88995 26.6328
rtibia 39.4979
rfoot -14.8591 3.64884
rtoes -12.3865
lfemur -21.4632 0.69473 -15.7396
ltibia 69.2791
lfoot 19.5894 -9.27219
ltoes -10.2676
